<svg xmlns="http://www.w3.org/2000/svg" width="18" height="18" fill="#ffffff" viewBox="0 0 18 18">
<path d="M 5.91 8.542 C 5.773 8.445 5.631 8.398 5.494 8.398 L 4.87 8.398 L 4.87 11.842 L 5.494 11.842 C 5.634 11.842 5.773 11.794 5.91 11.698 C 6.05 11.603 6.118 11.459 6.118 11.267 L 6.118 8.971 C 6.118 8.781 6.047 8.637 5.91 8.542 Z M 16.052 2.729 L 3.188 2.729 C 2.324 2.729 1.622 3.375 1.62 4.173 L 1.62 16.055 C 1.622 16.852 2.324 17.498 3.188 17.498 L 16.052 17.498 C 16.916 17.498 17.618 16.852 17.62 16.055 L 17.62 4.173 C 17.618 3.375 16.916 2.729 16.052 2.729 Z M 7.126 11.274 C 7.126 11.895 6.713 12.834 5.398 12.831 L 3.743 12.831 L 3.743 7.378 L 5.437 7.378 C 6.701 7.378 7.126 8.314 7.126 8.935 L 7.126 11.274 Z M 10.724 8.351 L 8.82 8.351 L 8.82 9.616 L 9.983 9.616 L 9.983 10.592 L 8.82 10.592 L 8.82 11.859 L 10.724 11.859 L 10.724 12.834 L 8.502 12.834 C 8.102 12.843 7.773 12.552 7.762 12.184 L 7.762 8.059 C 7.753 7.693 8.068 7.386 8.466 7.378 L 10.724 7.378 L 10.724 8.351 Z M 14.425 12.152 C 13.954 13.166 13.108 12.964 12.729 12.152 L 11.353 7.379 L 12.516 7.379 L 13.581 11.128 L 14.637 7.379 L 15.798 7.379 L 14.425 12.152 Z" style="fill: rgb(115, 115, 115);"></path>
</svg>